<?xml version="1.0" encoding="UTF-8" standalone="no"?>
<!-- Created with Inkscape (http://www.inkscape.org/) -->

<svg
   xmlns:dc="http://purl.org/dc/elements/1.1/"
   xmlns:cc="http://creativecommons.org/ns#"
   xmlns:rdf="http://www.w3.org/1999/02/22-rdf-syntax-ns#"
   xmlns:svg="http://www.w3.org/2000/svg"
   xmlns="http://www.w3.org/2000/svg"
   xmlns:sodipodi="http://sodipodi.sourceforge.net/DTD/sodipodi-0.dtd"
   xmlns:inkscape="http://www.inkscape.org/namespaces/inkscape"
   width="512"
   height="512"
   viewBox="0 0 135.46667 135.46667"
   version="1.1"
   id="svg5437"
   inkscape:version="0.92.4 (5da689c313, 2019-01-14)"
   sodipodi:docname="v-logo.svg"
   inkscape:export-filename="C:\Users\Ben\Documents\GitHub\vertigo-web\src\assets\icons\v-logo.png"
   inkscape:export-xdpi="98.303993"
   inkscape:export-ydpi="98.303993">
  <defs
     id="defs5431" />
  <sodipodi:namedview
     id="base"
     pagecolor="#ffffff"
     bordercolor="#666666"
     borderopacity="1.0"
     inkscape:pageopacity="0"
     inkscape:pageshadow="2"
     inkscape:zoom="0.49497475"
     inkscape:cx="304.01279"
     inkscape:cy="265.14957"
     inkscape:document-units="mm"
     inkscape:current-layer="layer1"
     showgrid="false"
     inkscape:window-width="1920"
     inkscape:window-height="1017"
     inkscape:window-x="-8"
     inkscape:window-y="-8"
     inkscape:window-maximized="1"
     units="px"
     inkscape:pagecheckerboard="true" />
  <metadata
     id="metadata5434">
    <rdf:RDF>
      <cc:Work
         rdf:about="">
        <dc:format>image/svg+xml</dc:format>
        <dc:type
           rdf:resource="http://purl.org/dc/dcmitype/StillImage" />
        <dc:title></dc:title>
      </cc:Work>
    </rdf:RDF>
  </metadata>
  <g
     inkscape:groupmode="layer"
     id="layer2"
     inkscape:label="Layer 2"
     transform="translate(0,-161.53332)">
    <path
       style="fill:#8dbb47;stroke-width:1.79322135"
       d="M 79.652479,275.45282 C 78.292428,272.16454 70.667428,253.31483 62.708017,233.56455 54.748606,213.8143 47.946604,197.36252 47.59247,197.00508 c -0.354154,-0.35746 -9.77928,-2.23544 -20.94475,-4.17329 -11.165474,-1.93787 -21.5056663,-3.83574 -22.9782107,-4.21748 -1.4725421,-0.38177 9.8332077,-0.78816 25.1238917,-0.9031 l 27.801243,-0.20896 14.390777,37.38279 c 7.914933,20.56053 15.082923,37.09422 15.928842,36.74154 0.845919,-0.35266 7.902802,-17.17495 15.681977,-37.38279 l 14.14393,-36.74154 h 6.05649 c 7.28941,0 8.79291,-5.51306 -13.5113,49.54347 -16.384865,40.44497 -17.827793,43.27499 -22.338197,43.81187 -4.007275,0.47697 -5.239629,-0.4361 -7.294684,-5.40475 z"
       id="path5418"
       inkscape:connector-curvature="0"
       sodipodi:nodetypes="cssccccscscssccc" />
  </g>
  <g
     inkscape:label="Layer 1"
     inkscape:groupmode="layer"
     id="layer1"
     transform="translate(0,-161.53332)">
    <path
       style="fill:#151515;stroke-width:1.79322135"
       d="m 80.780762,275.45282 c -8.50431,-22.1468 -31.17136,-76.51335 -32.486486,-77.91836 -0.927475,-0.99087 -10.695457,-3.55611 -21.706613,-5.70053 l -20.0202777,-3.89896 24.7629177,0.2958 24.762917,0.29578 14.712095,37.83319 c 8.091627,20.80826 15.328828,37.83319 16.082616,37.83319 0.753809,0 7.986639,-17.02493 16.072939,-37.83319 14.45177,-37.18821 14.79605,-37.84269 20.19502,-38.39078 l 5.49261,-0.55758 -17.01391,41.99394 c -9.35765,23.09666 -17.729883,43.81804 -18.60497,46.0475 -1.069136,2.72379 -3.083894,4.05355 -6.141689,4.05355 -3.068008,0 -5.057733,-1.32065 -6.107169,-4.05355 z"
       id="path5416"
       inkscape:connector-curvature="0"
       sodipodi:nodetypes="cccccccssccscsc" />
  </g>
</svg>
