<?xml version="1.0" encoding="UTF-8" standalone="no"?>
<!-- Created with Inkscape (http://www.inkscape.org/) -->

<svg
   xmlns:dc="http://purl.org/dc/elements/1.1/"
   xmlns:cc="http://creativecommons.org/ns#"
   xmlns:rdf="http://www.w3.org/1999/02/22-rdf-syntax-ns#"
   xmlns:svg="http://www.w3.org/2000/svg"
   xmlns="http://www.w3.org/2000/svg"
   xmlns:sodipodi="http://sodipodi.sourceforge.net/DTD/sodipodi-0.dtd"
   xmlns:inkscape="http://www.inkscape.org/namespaces/inkscape"
   version="1.1"
   id="svg4529"
   width="800.96002"
   height="240"
   viewBox="0 0 800.96002 240"
   sodipodi:docname="vertigo_logo.svg"
   inkscape:version="0.92.4 (5da689c313, 2019-01-14)">
  <metadata
     id="metadata4535">
    <rdf:RDF>
      <cc:Work
         rdf:about="">
        <dc:format>image/svg+xml</dc:format>
        <dc:type
           rdf:resource="http://purl.org/dc/dcmitype/StillImage" />
        <dc:title></dc:title>
      </cc:Work>
    </rdf:RDF>
  </metadata>
  <defs
     id="defs4533">
    <filter
       style="color-interpolation-filters:sRGB"
       inkscape:label="Lightness-Contrast"
       id="filter5386">
      <feColorMatrix
         values="5.6875 0 0 0.525972 -2.34375 0 5.6875 0 0.525972 -2.34375 0 0 5.6875 0.525972 -2.34375 0 0 0 1 0"
         id="feColorMatrix5384" />
    </filter>
  </defs>
  <sodipodi:namedview
     pagecolor="#ffffff"
     bordercolor="#666666"
     borderopacity="1"
     objecttolerance="10"
     gridtolerance="10"
     guidetolerance="10"
     inkscape:pageopacity="0"
     inkscape:pageshadow="2"
     inkscape:window-width="1920"
     inkscape:window-height="1017"
     id="namedview4531"
     showgrid="false"
     inkscape:zoom="1.2402318"
     inkscape:cx="216.75138"
     inkscape:cy="80.202752"
     inkscape:window-x="-8"
     inkscape:window-y="-8"
     inkscape:window-maximized="1"
     inkscape:current-layer="svg4529"
     units="px"
     inkscape:pagecheckerboard="true" />
  <g
     id="g5414"
     transform="matrix(9.8873239,0,0,9.9797182,-5.9688774e-8,0.58755323)">
    <path
       style="fill:#8dbb47;stroke-width:0.31999999"
       d="M 41.919999,22.590885 23.2,21.92 42.894323,21.76 C 64.867378,21.581487 63.845417,21.694 64.826729,19.345388 65.248134,18.336822 65.463151,16 65.134543,16 c -0.08,0 -0.4944,0.348947 -0.920889,0.775438 -1.149255,1.149254 -3.116445,1.654913 -4.650327,1.19535 -2.684265,-0.804225 -4.203328,-2.961147 -4.203328,-5.968318 0,-2.2490332 0.552816,-3.5786588 2.025491,-4.8716857 2.01328,-1.7676835 4.543424,-1.793632 6.689981,-0.068611 l 1.204528,0.9679849 V 7.0550794 c 0,-0.8700884 0.103367,-0.9750794 0.96,-0.9750794 h 0.96 v 6.192249 c 0,3.770941 -0.142153,6.617583 -0.363539,7.28 -0.715078,2.139581 -2.257466,3.224772 -5.076461,3.57169 -0.616,0.07581 -9.544,-0.164067 -19.84,-0.533054 z m 21.107635,-6.424491 c 1.629005,-0.84239 2.252365,-1.962883 2.252365,-4.048627 0,-1.703482 -0.105625,-1.992838 -1.149062,-3.1477968 -1.447869,-1.6026204 -2.832141,-1.931567 -4.495616,-1.0683008 -2.787744,1.4467101 -3.180115,5.9533986 -0.675251,7.7557906 1.522902,1.095815 2.658016,1.23784 4.067564,0.508934 z M 15.222352,17.221946 C 14.97852,16.637876 13.611496,13.289754 12.18452,9.7816758 10.757544,6.2735974 9.5380709,3.3514042 9.4745797,3.2879133 9.4110888,3.2244221 7.7213346,2.8908523 5.7195708,2.5466468 3.7178067,2.2024414 1.864,1.8653387 1.6,1.7975298 1.336,1.7297209 3.3629136,1.6575367 6.1042521,1.6371204 L 11.088504,1.6 13.668508,8.24 c 1.419003,3.652 2.704089,6.588745 2.855748,6.5261 0.151659,-0.06264 1.41683,-3.050645 2.811492,-6.6399998 L 21.871495,1.6 h 1.085817 c 1.306858,0 1.576408,-0.97923933 -2.422328,8.8 -2.937505,7.18391 -3.196196,7.686585 -4.004829,7.781946 -0.71843,0.08472 -0.939369,-0.07746 -1.307803,-0.96 z m 10.211698,0.572112 c -0.531272,-0.23149 -1.425213,-0.943963 -1.986534,-1.583273 -3.440434,-3.918437 -1.063071,-10.0173543 4.048907,-10.3871216 3.437114,-0.2486183 6.084578,1.9328 6.358789,5.2394206 L 33.999251,12.8 H 28.999625 C 25.722185,12.8 24,12.915702 24,13.135891 c 0,0.660809 0.962105,2.179314 1.796761,2.835854 1.442905,1.134989 4.671891,0.67237 5.488203,-0.786299 0.224446,-0.401061 0.448557,-0.429257 1.185352,-0.149128 l 0.908576,0.34544 -0.929446,0.988533 c -0.511196,0.543692 -1.392821,1.186797 -1.959168,1.429121 -1.288548,0.551332 -3.784693,0.548689 -5.056228,-0.0054 z M 32,10.704109 C 32,9.7799386 31.033554,8.3331021 30.090474,7.8454166 28.111577,6.822089 25.596591,7.4759328 24.523373,9.2927466 23.44653,11.115696 23.600203,11.2 28,11.2 c 3.399192,0 4,-0.07448 4,-0.495891 z m 3.350515,7.146564 c -0.09122,-0.237704 -0.126397,-3.019348 -0.07818,-6.181431 L 35.36,5.92 h 0.958867 c 0.913072,0 0.953933,0.057313 0.855485,1.2 -0.124141,1.4408992 0.06317,1.4897315 1.079827,0.2815062 0.858413,-1.020166 2.455299,-1.8061139 3.137644,-1.5442726 0.243824,0.093565 0.426413,0.4940362 0.405748,0.889937 -0.02845,0.5452854 -0.356484,0.8260841 -1.352832,1.1580784 -0.723395,0.2410425 -1.659395,0.8039116 -2.08,1.2508204 C 37.663136,9.9015462 37.58679,10.303466 37.44,14.024316 L 37.28,18.08 36.398179,18.181431 c -0.524115,0.06029 -0.949091,-0.07388 -1.047664,-0.330758 z m 9.9811,-0.267244 c -0.823664,-0.647893 -0.835865,-0.718739 -0.923155,-5.36 -0.08787,-4.6719324 -0.09328,-4.7027586 -0.808461,-4.6033144 -0.614454,0.085439 -0.72,-0.046509 -0.72,-0.9001146 0,-0.8536051 0.105546,-0.9855533 0.72,-0.9001146 0.672288,0.09348 0.726314,-0.032416 0.815271,-1.8998854 0.09433,-1.9801922 0.104624,-2 1.04,-2 0.94032,0 0.944729,0.00887 0.944729,1.9016006 v 1.9016007 l 1.36,0.098399 c 1.211095,0.087626 1.36,0.1859914 1.36,0.8983994 0,0.7157078 -0.134867,0.8027133 -1.28,0.8257523 l -1.28,0.025754 -0.09017,3.736277 c -0.110871,4.593867 0.09032,5.104075 1.954864,4.957319 1.178736,-0.09278 1.347289,-0.02074 1.437497,0.614383 0.195261,1.374783 -3.038899,1.877296 -4.530573,0.703945 z m 6.3389,0.267244 c -0.09122,-0.237704 -0.126397,-3.019348 -0.07818,-6.181431 L 51.679999,5.92 h 0.88513 0.88513 l 0.0445,6.08 0.0445,6.08 -0.851449,0.101431 c -0.498944,0.05944 -0.920115,-0.0775 -1.017299,-0.330758 z m 20.132335,-0.22287 c -2.515353,-1.142269 -3.818832,-3.956264 -3.259609,-7.036968 0.991984,-5.4647486 8.683033,-6.539554 11.09799,-1.5509179 1.221658,2.5236059 0.70529,6.0001699 -1.138893,7.6678789 -1.697984,1.535501 -4.497542,1.91995 -6.699488,0.920007 z m 4.337418,-1.572528 c 2.714377,-1.455737 3.010246,-5.721007 0.540054,-7.7855451 -2.54,-2.1228845 -6.280323,0.083037 -6.280323,3.7039321 0,1.860129 0.681482,3.225873 2.015536,4.039293 1.279984,0.780453 2.326237,0.79234 3.724733,0.04232 z M 51.519999,2.2197253 c 0,-1.26643941 0.02624,-1.29766543 1.008164,-1.2 0.927104,0.092212 1.010726,0.1967771 1.04,1.3004661 0.03043,1.1472963 -0.01398,1.200183 -1.008164,1.2 -1.002672,-1.847e-4 -1.04,-0.046862 -1.04,-1.3004661 z"
       id="path5418"
       inkscape:connector-curvature="0" />
    <path
       style="fill:#151515;stroke-width:0.31999999"
       d="M 26.173235,17.923709 C 22.454191,16.802627 20.825886,12.022832 22.996841,8.5995914 26.044277,3.7942826 33.73831,5.9124253 33.895654,11.6 L 33.92,12.48 h -4.941115 c -2.717613,0 -5.011801,0.114373 -5.098195,0.254162 -0.08639,0.139789 0.112735,0.856814 0.442509,1.593389 0.672362,1.501767 2.227362,2.629414 3.628439,2.631253 1.096837,0.0014 3.0826,-0.891445 3.311984,-1.48921 0.194017,-0.5056 1.24903,-0.57453 1.541853,-0.100736 0.30815,0.498601 -1.661175,2.172008 -2.990659,2.54127 -1.359916,0.377714 -2.420498,0.381669 -3.641581,0.01358 z M 32.148243,10.48 C 31.576886,8.5655853 29.738813,7.0423923 28,7.0423923 c -1.738813,0 -3.576887,1.523193 -4.148244,3.4376077 L 23.636872,11.2 H 28 32.363129 Z m 13.999113,7.37178 c -1.457945,-0.383144 -1.667357,-1.1609 -1.667357,-6.192612 V 7.36 h -0.8 c -0.586665,0 -0.8,-0.1706666 -0.8,-0.64 0,-0.4693334 0.213335,-0.64 0.8,-0.64 0.771284,0 0.8,-0.074667 0.8,-2.08 V 1.92 h 0.96 0.96 V 4 6.08 h 1.28 c 1.066666,0 1.28,0.1066666 1.28,0.64 0,0.5333334 -0.213334,0.64 -1.28,0.64 h -1.28 l 0.0049,4.08 c 0.0026,2.244 0.110695,4.234504 0.24,4.423341 0.391556,0.571829 1.316714,0.775413 2.125818,0.467793 0.641264,-0.243809 0.794202,-0.179851 0.944528,0.395002 0.09865,0.377253 0.144973,0.720313 0.102931,0.762355 -0.341926,0.341925 -2.819197,0.587093 -3.67082,0.363289 z M 15.385097,17.2 C 13.860428,13.266246 9.7966434,3.6095597 9.5608652,3.36 9.3945845,3.184 7.643366,2.7283573 5.6692684,2.3474607 L 2.08,1.6549215 6.5195359,1.7074607 10.959072,1.76 13.596679,8.48 c 1.450684,3.696 2.748178,6.72 2.883321,6.72 0.135142,0 1.431856,-3.024 2.881585,-6.72 2.590935,-6.6054375 2.652659,-6.7216884 3.620595,-6.8190405 l 0.984723,-0.09904 -3.050281,7.4590404 C 19.238967,13.123432 17.737978,16.804 17.58109,17.2 c -0.191674,0.483805 -0.552885,0.72 -1.10109,0.72 -0.550039,0 -0.90676,-0.234577 -1.094903,-0.72 z M 35.52,12 V 6.08 h 0.8 c 0.726492,0 0.80079,0.1249622 0.808608,1.36 L 37.137208,8.8 38.0086,7.7922778 C 39.603977,5.9473101 41.599999,5.4402848 41.599999,6.88 c 0,0.5931277 -0.169606,0.8 -0.655891,0.8 -1.07032,0 -2.528729,0.9194291 -3.197062,2.0155357 C 37.225475,10.55094 37.122195,11.314081 37.121196,14.32 l -0.0012,3.6 h -0.8 -0.8 z m 16.159999,0 V 6.08 h 0.88 0.88 V 12 17.92 h -0.88 -0.88 z m 0,-9.6 c 0,-1.0084849 0.08762,-1.12 0.88,-1.12 0.792381,0 0.88,0.1115151 0.88,1.12 0,1.0084848 -0.08762,1.12 -0.88,1.12 -0.79238,0 -0.88,-0.1115152 -0.88,-1.12 z"
       id="path5416"
       inkscape:connector-curvature="0" />
  </g>
</svg>
